<svg width="28" height="28" viewBox="0 0 28 28" fill="none" xmlns="http://www.w3.org/2000/svg">
<path d="M13.8728 6.87256C10.0071 6.87256 6.8728 10.0068 6.8728 13.8726C6.8728 17.7383 10.0071 20.8726 13.8728 20.8726C17.7386 20.8726 20.8728 17.7383 20.8728 13.8726C20.8728 10.0068 17.7386 6.87256 13.8728 6.87256ZM13.8728 18.2476C11.4613 18.2476 9.4978 16.2841 9.4978 13.8726C9.4978 11.4593 11.4613 9.49756 13.8728 9.49756C16.2843 9.49756 18.2478 11.4593 18.2478 13.8726C18.2478 16.2841 16.2843 18.2476 13.8728 18.2476Z" fill="black"/>
<path d="M22.3146 6.95632C22.8297 6.95632 23.2473 6.53871 23.2473 6.02357C23.2473 5.50843 22.8297 5.09082 22.3146 5.09082C21.7994 5.09082 21.3818 5.50843 21.3818 6.02357C21.3818 6.53871 21.7994 6.95632 22.3146 6.95632Z" fill="black"/>
<path d="M19.25 0H8.75C3.91825 0 0 3.91825 0 8.75V19.25C0 24.0817 3.91825 28 8.75 28H19.25C24.0817 28 28 24.0817 28 19.25V8.75C28 3.91825 24.0817 0 19.25 0ZM25.375 19.25C25.375 22.6275 22.6275 25.375 19.25 25.375H8.75C5.3725 25.375 2.625 22.6275 2.625 19.25V8.75C2.625 5.3725 5.3725 2.625 8.75 2.625H19.25C22.6275 2.625 25.375 5.3725 25.375 8.75V19.25Z" fill="black"/>
</svg>
